<?xml version="1.0" standalone="no"?><!DOCTYPE svg PUBLIC "-//W3C//DTD SVG 1.1//EN" "http://www.w3.org/Graphics/SVG/1.1/DTD/svg11.dtd"><svg t="1575942775023" class="icon" viewBox="0 0 1024 1024" version="1.1" xmlns="http://www.w3.org/2000/svg" p-id="1100" xmlns:xlink="http://www.w3.org/1999/xlink" width="200" height="200"><defs><style type="text/css"></style></defs><path d="M893.76768 465.92l0 28.80512L893.76768 558.08l0 28.80512c-174.91968 0-228.99712 37.02784-286.26944 76.22656-55.01952 37.66272-111.91296 76.60544-251.33056 76.60544l0-0.86016c-6.6048 0.57344-11.40736 0.84992-11.40736 0.84992l-48.85504 0.14336 37.95968 96.09216c1.28 3.2256 0.23552 6.912-2.51904 8.98048-1.3824 1.04448-3.00032 1.54624-4.63872 1.54624-1.65888 0-3.29728-0.52224-4.68992-1.5872L133.24288 699.74016c-1.8944-1.45408-3.01056-3.70688-3.01056-6.10304 0-2.39616 1.11616-4.63872 3.01056-6.10304l188.78464-145.14176c2.75456-2.11968 6.57408-2.12992 9.32864-0.03072 2.7648 2.07872 3.79904 5.75488 2.51904 8.97024l-37.95968 96.1024 68.0448 0c104.82688-1.25952 143.31904-27.40224 191.488-60.37504 30.59712-20.9408 63.22176-43.23328 111.73888-60.66176-48.51712-17.43872-81.14176-39.72096-111.73888-60.66176-48.16896-32.9728-86.66112-59.11552-191.488-60.37504l-68.0448 0 37.95968 96.1024c1.28 3.21536 0.23552 6.89152-2.51904 8.97024-2.7648 2.08896-6.58432 2.07872-9.32864-0.03072L133.24288 365.2608c-1.8944-1.46432-3.01056-3.70688-3.01056-6.10304 0-2.39616 1.11616-4.64896 3.01056-6.10304l188.78464-145.14176c1.39264-1.06496 3.03104-1.5872 4.68992-1.5872 1.6384 0 3.25632 0.512 4.63872 1.54624 2.7648 2.07872 3.79904 5.76512 2.51904 8.98048l-37.95968 96.09216 48.85504 0.14336c0 0 4.8128 0.26624 11.40736 0.84992l0-0.86016c139.4176 0 196.31104 38.94272 251.33056 76.60544C664.77056 428.89216 718.848 465.92 893.76768 465.92z" p-id="1101" fill="#13227a"></path></svg>