<?xml version="1.0" standalone="no"?><!DOCTYPE svg PUBLIC "-//W3C//DTD SVG 1.1//EN" "http://www.w3.org/Graphics/SVG/1.1/DTD/svg11.dtd"><svg t="1576139625073" class="icon" viewBox="0 0 1024 1024" version="1.1" xmlns="http://www.w3.org/2000/svg" p-id="2119" xmlns:xlink="http://www.w3.org/1999/xlink" width="200" height="200"><defs><style type="text/css"></style></defs><path d="M788.4 820.2H624.7l-2.1-1.7L581.1 524h117.3l5.3-9-136.4-98.3c2.1-37.1 3.2-69.7 3.4-97.6h64.2l13.1-26.4-93.3-95.7-0.1 0.1c-0.3-0.3-0.5-0.6-0.7-0.9-16.3-14.5-47.1-13.4-80.1-10.4-28.5-2.5-55.3-3.7-72.6 5.4l-97.7 101.7 13.4 26.1H377c0.2 28 1.3 60.7 3.4 97.9l-125.2 97.3 5.3 9.7H369l-34.8 296.2h-138V852h592.3v-31.8zM532 234.4c1.4 11.2 2.4 26.7 2.8 45l-33.1-23.7 30.3-21.3z m-17.4 225.4l20.6-10.6 3.2 22.4-23.8-11.8z m-8 32.3h-55.1l27.2-13.9 27.9 13.9z m-24-52.4l-4.1 2.1-4.2-2.1h8.3z m-28.2-31.8l24.2-18.4 23.5 18.4h-47.7z m51.4-39.1l29-22c-0.3 14.3-0.8 29-1.4 43.5l-27.6-21.5z m-26.9-21l-36.8-28.7h74.6l-37.8 28.7z m10.2-60.6h-32l16.1-11.4 15.9 11.4z m-76.3-9c0.5-17.7 1.4-32.7 2.8-43.6l29.3 21-32.1 22.6z m-35.6 9h-22.7l23.7-25.6c-0.4 7.9-0.7 16.4-1 25.6z m74.4 81.3l-37.1 28.1c-0.9-19.6-1.5-39.5-1.8-58.6l38.9 30.5z m-9 91.7L409.7 477l3.7-31.4 29.2 14.6z m68.9 63.8L476 549.4 438 524h73.5z m-34.8 65.5l71.2 47.8-69.9 62.3-72.1-59.3 70.8-50.8z m2.3 153.8l80.7 66.4-164.4 8.2 83.7-74.6z m103.7 42.3L504.1 721l61.7-55 16.9 119.6z m-77.5-216.5l42.6-30.6 9.2 65.4-51.8-34.8z m74.1-77l-2.9-1.5-4.1-28.8 40 30.2h-33z m16.6-204.9h-25.5c-0.2-9.9-0.6-19-1.2-27.3l26.7 27.3z m-122.1-69.5l1.7-0.2c10.4-0.9 18.7-1.4 25.5-1.6l-27.7 19.5-27.3-19.5c6.9 0.2 15.3 0.7 26 1.6l1.8 0.2z m-97.7 245.4l-3.4 29h-32.5l35.9-29z m26.3 76.5l45.1 30.3-53.1 38.1 8-68.4zM453 721.9l-80.4 71.7 14.8-125.7 65.6 54z" fill="#DAE9FF" p-id="2120"></path><path d="M755.5 573.6c-53.3 0-96.5 42.7-96.5 95.4 0 75.2 96.5 156.5 96.5 156.5S852 740.8 852 669.1c0-52.8-43.2-95.5-96.5-95.5z m0 147.5c-29.4 0-53.2-23.6-53.2-52.6s23.8-52.6 53.2-52.6c29.4 0 53.2 23.6 53.2 52.6 0 29.1-23.8 52.6-53.2 52.6z" fill="#FFD6C2" p-id="2121"></path><path d="M764.3 808.3H600.6l-2.1-1.7L557 512h117.3l5.3-9-136.4-98.3c2.1-37.1 3.2-69.7 3.4-97.6h64.2l13.1-26.4-93.3-95.6-0.1 0.1c-0.3-0.3-0.5-0.6-0.7-0.9-16.3-14.5-47.1-13.4-80.1-10.4-28.5-2.5-55.3-3.7-72.6 5.4L279.4 281l13.4 26.1h60.1c0.2 28 1.3 60.7 3.4 97.9l-125.2 97.3 5.3 9.7h108.4L310 808.3H172v31.8h592.3v-31.8zM507.9 222.5c1.4 11.2 2.4 26.7 2.8 45l-33.1-23.7 30.3-21.3z m-17.4 225.4l20.6-10.6 3.2 22.4-23.8-11.8z m-8 32.3h-55.1l27.2-13.9 27.9 13.9z m-24-52.5l-4.1 2.1-4.2-2.1h8.3z m-28.2-31.8l24.2-18.4 23.5 18.4h-47.7z m51.4-39l29-22c-0.3 14.3-0.8 29-1.4 43.5l-27.6-21.5z m-26.9-21.1L418 307.1h74.6l-37.8 28.7z m10.2-60.5h-32l16.1-11.4 15.9 11.4z m-76.3-9c0.5-17.7 1.4-32.7 2.8-43.6l29.3 21-32.1 22.6z m-35.6 9h-22.7l23.7-25.6c-0.4 7.8-0.8 16.4-1 25.6z m74.4 81.2l-37.1 28.1c-0.9-19.6-1.5-39.5-1.8-58.6l38.9 30.5z m-9 91.7L385.6 465l3.7-31.4 29.2 14.6z m68.9 63.8l-35.5 25.5-38-25.5h73.5z m-34.8 65.6l71.2 47.8-69.9 62.3-72.1-59.3 70.8-50.8z m2.3 153.8l80.7 66.4-164.4 8.2 83.7-74.6z m103.6 42.3l-78.6-64.6 61.7-55 16.9 119.6z m-77.4-216.6l42.6-30.6 9.2 65.4-51.8-34.8z m74.1-76.9l-2.9-1.5-4.1-28.8 40 30.2h-33z m16.6-204.9h-25.5c-0.2-9.9-0.6-19-1.2-27.3l26.7 27.3z m-122.1-69.5l1.7-0.2c10.4-0.9 18.7-1.4 25.5-1.6l-27.7 19.5L422 204c6.9 0.2 15.3 0.7 26 1.6l1.7 0.2zM352 451.2l-3.4 29h-32.5l35.9-29z m26.3 76.5l45.1 30.3-53.1 38.1 8-68.4zM428.9 710l-80.4 71.7L363.2 656l65.7 54z" fill="#3889FF" p-id="2122"></path><path d="M731.4 561.7c-53.3 0-96.5 42.7-96.5 95.4 0 75.2 96.5 156.5 96.5 156.5s96.5-84.8 96.5-156.5c0-52.7-43.2-95.4-96.5-95.4z m0 147.5c-29.4 0-53.2-23.6-53.2-52.6S702 604 731.4 604c29.4 0 53.2 23.6 53.2 52.6 0 29.1-23.8 52.6-53.2 52.6z" fill="#FB560A" p-id="2123"></path></svg>